<svg version="1.2" xmlns="http://www.w3.org/2000/svg" viewBox="0 0 3989 923" width="3989" height="923"><defs><clipPath clipPathUnits="userSpaceOnUse" id="cp1"><path d="m0 148h494v627h-494z"/></clipPath></defs><style>.a{fill:#0369a1}</style><g clip-path="url(#cp1)"><path fill-rule="evenodd" class="a" d="m0 775h193.8q95.7 0 162.5-37.7 33.9-19.2 59.6-46.8-10 0.9-20.3 0.9c-54.5 0-104.7-18.9-144.1-50.6h145.2 55.2q3.2-5.8 6.2-11.8 10.4-21.1 17.7-44.5h-79.1-195.7c-8.9-14.1-16.3-29.2-22.1-45.1h217.8 89.9q3.8-21.7 5.3-45.1l-95.2 0.1-229-0.1c-1.5-10.7-2.3-21.7-2.3-32.8q0-3.3 0.1-6.6h231.2 96.3q-0.2-20.3-1.9-39.4h-94.4-226.7c2.8-13.7 6.7-26.8 11.8-39.5l214.9 0.1 88.9-0.1q-3-15.9-7.3-30.9h-81.6-199.7c6.5-11 13.8-21.3 21.9-31h177.8 71.1q-4.3-10.8-9.4-21-0.4-0.8-0.8-1.5h-60.9l-156.1-0.1c9-8.2 18.8-15.7 29.1-22.5h127 48.3q-5.5-8.7-11.5-16.9h-36.8-96.3c29-13.2 61.3-20.5 95.2-20.5q11.1 0 21.9 1-25.4-27.8-58.7-46.9-65.1-37.7-156.4-37.7h-202.4z"/></g><path class="a" d="m668.4 733v-497.7h128.9q34.5 0 64.6 8.6 30.1 8.2 54.7 23.6 21.5 12.6 38.3 31.1 17.1 18.1 29.7 39.6 14.7 26.3 22.6 58.1 8.2 31.8 8.2 67.7v41q0 34.5-7.5 65.3-7.6 30.8-21.2 56.4-13 22.9-30.5 42.4-17.4 19.1-38.2 32.1-24.3 15.4-53.7 23.6-29.1 8.2-62.2 8.2zm96.7-419.7v342.5h36.9q17.8 0 33.2-4.5 15.4-4.4 28-13 13-8.9 23.3-22.5 10.5-14.1 18.1-32.5 6.1-16.1 9.2-35.6 3.4-19.8 3.4-42.7v-41.7q0-21.5-3.4-40.7-3.1-19.4-9.2-35.5-7.6-19.1-19.9-34.2-11.9-15-28-24.6-12.3-7.2-27.3-10.9-14.7-4.1-32.2-4.1zm570.5 315.8h-149.4l-29.4 103.9h-101.1l163-497.7h87.2l159.9 497.7h-101.1zm-125.8-81.7h103.2l-50.9-183.2zm667.2-233.8h-153.5v419.4h-96.4v-419.4h-151.4v-78.3h401.3zm299.4 315.5h-149.4l-29.4 103.9h-101.2l163.1-497.6h87.1l160 497.6h-101.2zm-125.8-81.7h103.3l-51-183.2zm647 29.8q-2.3 37.6-16.4 67.7-13.6 30-36.9 51.2-23.2 21.2-55.3 32.8-32.2 11.3-71.1 11.3-30.8 0-57.1-7.8-26-8.3-46.8-23.3-19.2-14-34.2-33.8-14.7-19.9-25-43.8-9.9-23.9-15.4-52.6-5.1-28.7-5.1-60.9v-66.9q0-30.1 4.8-57.1 4.8-27.4 14.4-50.6 10.9-28.4 28.7-50.6 17.7-22.2 40.3-37.6 20.2-13 44.1-19.8 24.3-7.2 51.9-7.2 41.1 0 72.8 11.6 32.2 11.6 54.7 33.2 22.6 21.5 35.6 52.6 13 31.1 16.4 70.1h-95.7q-1.4-22.2-6.9-39-5.1-16.7-15-28-10.3-10.9-25.6-16.4-15.1-5.8-36.3-5.8-11.2 0-21.1 2.4-9.6 2.4-17.8 7.1-14 8.2-23.9 23.6-9.6 15.1-15.4 35.2-4.5 15.8-6.5 34.9-2.1 18.8-2.1 40.7v67.6q0 29.8 3.1 53.4 3.4 23.2 10.3 40.6 4.7 12 11.2 21.2 6.9 9.3 15.4 15.4 9.2 6.8 20.5 10.3 11.6 3 25.7 3 18.8 0 33.8-4.7 15-4.8 25.6-15.1 10.6-10.2 16.8-26.3 6.1-16.1 7.5-38.6zm177.7 78.2h233.1v77.6h-329.4v-497.6h96.3zm562.3-26.3h-149.4l-29.4 103.9h-101.1l163-497.7h87.2l159.9 497.7h-101.2zm-125.7-81.7h103.2l-50.9-183.2zm403.6 3v182.6h-96v-497.7h170.2q40.7 0 73.5 12 32.8 11.6 56 32.4 22.9 21.2 35.2 50.6 12.7 29.4 12.7 65.3 0 33.5-12.7 61.9-12.3 28.4-35.2 48.9-23.2 20.8-56 32.4-32.8 11.7-73.5 11.6zm0-77.9h74.2q20.5 0 35.5-6.1 15.1-6.2 25.3-16.8 9.9-10.6 14.7-24.2 5.1-14.1 5.1-29.1 0-17.4-5.1-32.5-4.8-15-14.7-26.3-10.2-11.3-25.3-17.8-15-6.5-35.5-6.5h-74.2z"/></svg>